#!OML:ASF E:\Steps\Project 1\Capture day 1\Session 2\Subject.ASF
:FULLY-SPECIFIED
:DEGREES
245
root 9.30243 16.3152 17.8522 -153.021 -2.36786 179.638
lowerback -30.4888 -1.4527 -6.41996
upperback -2.45619 -0.600056 -0.274135
thorax 13.2346 -0.996962 2.8568
lowerneck 5.53928 -7.2561 -3.57846
upperneck -13.0806 -9.682 7.98962
head -4.23192 -5.26904 3.51249
rclavicle -2.88238e-015 5.1684e-015
rhumerus -33.0891 -21.3184 -80.037
rradius 25.4251
rwrist 4.36089
rhand -10.1377 -51.6959
rfingers 7.12502
rthumb 15.851 -81.0671
lclavicle -2.88238e-015 5.1684e-015
lhumerus -25.914 7.1795 83.029
lradius 15.2855
lwrist -15.8197
lhand -21.8362 -14.3935
lfingers 7.12502
lthumb 4.56696 15.5373
rfemur -26.0798 9.5119 16.8705
rtibia 8.87278
rfoot -18.3789 -5.16515
rtoes -32.056
lfemur -24.8864 -8.88661 -18.1779
ltibia 7.90303
lfoot -8.50165 5.2732
ltoes -42.8477
246
root 9.30068 16.3146 17.8476 -153.088 -2.43683 179.639
lowerback -30.479 -1.46217 -6.37592
upperback -2.42772 -0.619931 -0.277637
thorax 13.2653 -1.00216 2.82214
lowerneck 5.56657 -7.2412 -3.60338
upperneck -13.0633 -9.66544 7.95238
head -4.23297 -5.25613 3.50514
rclavicle -6.41081e-015 -5.20816e-014
rhumerus -33.0965 -21.3291 -80.0362
rradius 25.417
rwrist 4.37956
rhand -10.0629 -51.4969
rfingers 7.12502
rthumb 15.923 -80.8623
lclavicle -6.41081e-015 -5.20816e-014
lhumerus -25.9242 7.01612 83.0766
lradius 15.3486
lwrist -15.7277
lhand -21.7608 -14.411
lfingers 7.12502
lthumb 4.63971 15.5182
rfemur -25.9817 9.54905 16.8815
rtibia 8.89356
rfoot -18.4494 -5.29402
rtoes -31.8213
lfemur -24.7827 -8.94728 -18.1745
ltibia 7.85368
lfoot -8.44535 5.20022
ltoes -42.8314
247
root 9.29834 16.309 17.8535 -152.809 -2.22654 179.761
lowerback -30.7303 -1.34081 -6.24014
upperback -2.5057 -0.519594 -0.278572
thorax 13.2766 -0.959467 2.78103
lowerneck 5.58372 -7.23599 -3.63046
upperneck -13.0665 -9.66338 7.91667
head -4.23753 -5.25119 3.49942
rclavicle 7.20594e-015 6.36111e-015
rhumerus -33.0584 -21.2961 -80.0328
rradius 25.3291
rwrist 4.33112
rhand -10.0934 -51.371
rfingers 7.12502
rthumb 15.8937 -80.7387
lclavicle 7.20594e-015 6.36111e-015
lhumerus -25.9301 6.87238 83.1458
lradius 15.4031
lwrist -15.6052
lhand -21.8349 -14.3492
lfingers 7.12502
lthumb 4.56823 15.5815
rfemur -26.5328 9.61852 16.903
rtibia 9.21562
rfoot -18.5531 -5.10331
rtoes -31.7423
lfemur -25.1301 -8.87497 -18.0349
ltibia 7.90326
lfoot -8.439 5.31341
ltoes -42.5028
248
root 9.3018 16.3184 17.8434 -153.268 -2.69484 179.545
lowerback -30.3131 -1.57514 -6.45009
upperback -2.38433 -0.737712 -0.262267
thorax 13.2537 -1.0531 2.83699
lowerneck 5.60543 -7.26326 -3.63089
upperneck -13.0735 -9.69872 7.93237
head -4.24029 -5.26974 3.50668
rclavicle -6.60959e-015 -1.03368e-014
rhumerus -33.0567 -21.2871 -80.0199
rradius 25.3063
rwrist 4.27675
rhand -10.1701 -51.226
rfingers 7.12502
rthumb 15.8198 -80.5997
lclavicle -6.60959e-015 -1.03368e-014
lhumerus -25.9188 6.7994 83.1738
lradius 15.401
lwrist -15.5202
lhand -21.9107 -14.3048
lfingers 7.12502
lthumb 4.49503 15.6275
rfemur -25.6429 9.67006 16.8184
rtibia 8.76828
rfoot -18.467 -5.64119
rtoes -31.8431
lfemur -24.6186 -9.04039 -18.2449
ltibia 7.93749
lfoot -8.53109 4.86327
ltoes -42.3477
249
root 9.30385 16.3142 17.8504 -153.024 -2.50227 179.657
lowerback -30.4886 -1.49681 -6.38604
upperback -2.46521 -0.673105 -0.248944
thorax 13.2317 -1.02838 2.83729
lowerneck 5.5876 -7.30097 -3.60524
upperneck -13.0601 -9.74678 7.94545
head -4.231 -5.29535 3.50686
rclavicle 1.88845e-015 -1.82882e-014
rhumerus -33.0687 -21.2607 -80.042
rradius 25.3397
rwrist 4.25023
rhand -10.2682 -51.2081
rfingers 7.12502
rthumb 15.7254 -80.5892
lclavicle 1.88845e-015 -1.82882e-014
lhumerus -25.9087 6.80574 83.1566
lradius 15.3809
lwrist -15.5272
lhand -21.9303 -14.2285
lfingers 7.12502
lthumb 4.4761 15.7042
rfemur -26.1053 9.57753 16.9045
rtibia 9.00854
rfoot -18.3999 -5.367
rtoes -32.1795
lfemur -24.9251 -8.92936 -18.1115
ltibia 7.98485
lfoot -8.55034 4.98602
ltoes -42.1318
250
root 9.30452 16.3116 17.8524 -152.92 -2.44224 179.708
lowerback -30.5728 -1.46589 -6.3446
upperback -2.49291 -0.65144 -0.246409
thorax 13.2348 -1.01979 2.824
lowerneck 5.56789 -7.28259 -3.65547
upperneck -12.9181 -9.72138 7.92968
head -4.1842 -5.27421 3.50216
rclavicle 7.60351e-015 -1.90833e-014
rhumerus -33.0571 -21.1199 -80.139
rradius 25.3982
rwrist 4.03311
rhand -10.565 -51.6628
rfingers 7.12502
rthumb 15.4395 -81.0662
lclavicle 7.60351e-015 -1.90833e-014
lhumerus -25.894 6.97585 83.09
lradius 15.3629
lwrist -15.7079
lhand -21.8696 -14.1755
lfingers 7.12502
lthumb 4.53464 15.756
rfemur -26.2726 9.60642 16.9438
rtibia 9.0788
rfoot -18.3634 -5.33858
rtoes -32.3865
lfemur -24.9976 -9.02876 -18.0169
ltibia 7.89306
lfoot -8.49734 5.26247
ltoes -42.048
251
root 9.30401 16.3109 17.8525 -152.896 -2.42089 179.742
lowerback -30.6031 -1.44178 -6.30401
upperback -2.49511 -0.633431 -0.245262
thorax 13.2441 -1.01036 2.8098
lowerneck 5.59651 -7.24558 -3.71453
upperneck -12.7919 -9.672 7.89818
head -4.15219 -5.23996 3.49631
rclavicle 2.38542e-015 1.27222e-014
rhumerus -33.0387 -21.1135 -80.1484
rradius 25.3855
rwrist 4.02957
rhand -10.6653 -51.8481
rfingers 7.12502
rthumb 15.3429 -81.2589
lclavicle 2.38542e-015 1.27222e-014
lhumerus -25.9092 6.89823 83.1117
lradius 15.3975
lwrist -15.6053
lhand -21.8494 -14.2121
lfingers 7.12502
lthumb 4.55417 15.7189
rfemur -26.3252 9.78926 16.945
rtibia 9.11271
rfoot -18.3716 -5.53353
rtoes -32.7124
lfemur -24.9477 -9.20078 -17.9327
ltibia 7.76828
lfoot -8.4428 5.55391
ltoes -42.3797
252
root 9.30256 16.3116 17.8535 -152.914 -2.47456 179.712
lowerback -30.5346 -1.45704 -6.30256
upperback -2.50984 -0.657481 -0.256618
thorax 13.1992 -1.01927 2.78869
lowerneck 5.58641 -7.29658 -3.66714
upperneck -12.8675 -9.74096 7.9007
head -4.17173 -5.27926 3.49466
rclavicle 2.03754e-015 2.78299e-015
rhumerus -33.0271 -21.1312 -80.1203
rradius 25.3323
rwrist 4.15874
rhand -10.5839 -51.5735
rfingers 7.12502
rthumb 15.4213 -80.9783
lclavicle 2.03754e-015 2.78299e-015
lhumerus -25.9553 6.79195 83.14
lradius 15.4281
lwrist -15.5195
lhand -21.8898 -14.3998
lfingers 7.12502
lthumb 4.51516 15.5321
rfemur -26.33 9.83209 16.8965
rtibia 9.14693
rfoot -18.3295 -5.65373
rtoes -32.9557
lfemur -24.9791 -9.09812 -17.9946
ltibia 7.85366
lfoot -8.44125 5.40345
ltoes -42.707
253
root 9.30201 16.3126 17.8531 -152.964 -2.56253 179.658
lowerback -30.4448 -1.49547 -6.32879
upperback -2.51081 -0.700153 -0.264588
thorax 13.1625 -1.03711 2.77954
lowerneck 5.51675 -7.36473 -3.60618
upperneck -12.9285 -9.83388 7.89684
head -4.17657 -5.33057 3.48636
rclavicle 1.68967e-015 -1.78906e-014
rhumerus -33.0078 -20.9915 -80.1873
rradius 25.4018
rwrist 3.90669
rhand -10.6941 -51.9632
rfingers 7.12502
rthumb 15.3151 -81.3762
lclavicle 1.68967e-015 -1.78906e-014
lhumerus -25.9555 7.05421 83.0522
lradius 15.3926
lwrist -15.8135
lhand -21.7762 -14.5658
lfingers 7.12502
lthumb 4.62488 15.3637
rfemur -26.2641 9.61888 16.8905
rtibia 9.14928
rfoot -18.3654 -5.48437
rtoes -32.3989
lfemur -25.0221 -8.95936 -18.0969
ltibia 7.99995
lfoot -8.45452 5.19878
ltoes -43.1823
